<svg width="67" height="80" viewBox="0 0 67 80" fill="none" xmlns="http://www.w3.org/2000/svg">
<path d="M55.6917 0.00031328C49.4467 0.00979879 44.3873 5.07221 44.3841 11.3201C44.3841 11.6553 44.5169 11.9778 44.754 12.215C44.9912 12.4521 45.3137 12.585 45.6489 12.585H52.6244C52.7066 12.585 52.7793 12.6292 52.8173 12.7019C52.8552 12.7747 52.8489 12.86 52.8014 12.9264L48.6908 18.6371L48.6876 18.6434L45.592 22.9406H22.5882C21.8893 22.9406 21.3233 23.5067 21.3233 24.2055C21.3233 24.9043 21.8893 25.4703 22.5882 25.4703H43.7707L27.6855 47.816L11.6002 25.4703H16.7038C17.4026 25.4703 17.9686 24.9043 17.9686 24.2055C17.9686 23.5067 17.4026 22.9406 16.7038 22.9406H9.77891L2.5695 12.9265C2.52207 12.8601 2.51575 12.7748 2.55369 12.702C2.59164 12.6293 2.66436 12.585 2.74657 12.585H39.7302C40.429 12.585 40.995 12.019 40.995 11.3202C40.995 10.6214 40.429 10.0554 39.7302 10.0554H2.74657C1.71578 10.0554 0.773461 10.6309 0.302342 11.5479C-0.168801 12.4649 -0.0834246 13.5685 0.517357 14.4064L26.4208 50.3903V68.6198C18.952 68.9645 11.9383 72.3068 6.97136 77.8941C6.63934 78.2672 6.55713 78.7984 6.76267 79.2538C6.96504 79.7091 7.41721 80 7.91683 80H47.4552C47.9548 80 48.407 79.7091 48.6093 79.2538C48.8149 78.7984 48.7327 78.2672 48.4007 77.8941C44.5588 73.5463 39.4397 70.5265 33.7765 69.265C33.0935 69.11 32.42 69.5401 32.2651 70.2231C32.1133 70.9029 32.5433 71.5796 33.2232 71.7314C37.3812 72.6579 41.2326 74.6341 44.4102 77.4705H10.9689C15.5791 73.3819 21.5237 71.1243 27.6863 71.121C28.0215 71.121 28.344 70.9883 28.5812 70.7511C28.8184 70.5139 28.9512 70.1914 28.9512 69.8562V50.3906L50.0325 21.1003C53.0775 22.8616 56.7677 23.1051 60.015 21.758C63.2656 20.4141 65.7035 17.6347 66.6142 14.2386C67.5249 10.8426 66.8071 7.21572 64.6664 4.4269C62.5257 1.63483 59.2087 0 55.6925 0L55.6917 0.00031328ZM55.6917 20.0884C54.234 20.0916 52.8016 19.728 51.521 19.0354L54.8538 14.4062C55.4546 13.5682 55.54 12.4647 55.0688 11.5477C54.5977 10.6308 53.6554 10.0552 52.6246 10.0552H47.0025C47.4926 6.65288 49.9243 3.85126 53.2223 2.88369C56.5202 1.91612 60.0776 2.96274 62.3289 5.55878C64.5771 8.15795 65.1052 11.8291 63.676 14.9561C62.2499 18.0802 59.1289 20.0884 55.6917 20.0884Z" fill="black"/>
</svg>
