<svg width="82" height="80" viewBox="0 0 82 80" fill="none" xmlns="http://www.w3.org/2000/svg">
<path d="M41.716 31.758C38.9275 29.2299 34.5832 29.2233 31.8671 31.8008C29.6917 33.8642 29.1247 36.8867 30.0443 39.4478C28.4885 40.0839 27.3877 41.61 27.3877 43.3932C27.3877 45.8818 29.5169 47.7375 31.6924 47.6518L37.4738 47.4277C38.4264 48.1364 39.3855 49.8206 41.7159 49.8206C42.7443 49.8206 43.7726 49.4482 44.5736 48.7099C51.9601 41.8737 51.6767 42.1374 51.703 42.1111C54.4553 39.3588 54.4981 34.8398 51.8019 32.0377C49.076 29.2064 44.5835 29.1804 41.716 31.758ZM31.6266 45.2656C30.6049 45.2557 29.7775 44.4185 29.7775 43.3967C29.7775 42.365 30.618 41.5245 31.6497 41.5245H32.1244C32.7836 41.5245 33.3176 40.9905 33.3176 40.3313V39.8566C33.3176 38.8249 34.1581 37.9878 35.1898 37.9878C36.2149 37.9878 37.0488 38.8151 37.0587 39.8369L36.8576 45.0645L31.6266 45.2656ZM50.0291 40.4071L42.9524 46.9565C42.2602 47.5992 41.1725 47.5992 40.4803 46.9565L39.2146 45.7864C39.5211 37.8724 39.442 40.3511 39.442 39.86C39.442 35.9541 34.6066 34.1248 32.0093 37.022C32.0126 32.7107 37.2336 30.6441 40.2858 33.6963L40.8725 34.283C41.3373 34.7477 42.0954 34.7477 42.5601 34.283C42.8502 34.0753 44.1027 32.2427 46.7 32.2592C50.9652 32.2988 52.9692 37.4406 50.0291 40.4071Z" fill="black"/>
<path d="M80.0035 54.9272H75.2044C74.6276 37.8072 61.6673 23.9368 45.1338 21.7885C48.4266 17.9419 45.6974 11.943 40.5984 11.943C35.4993 11.943 32.7734 17.9452 36.0629 21.7885C19.5463 23.9376 6.56951 37.7912 5.99235 54.9272H1.19322C0.534 54.9272 0 55.4611 0 56.1204V56.1962C0 62.0798 4.78596 66.8686 10.6724 66.8686H35.1655C34.5656 72.8939 29.4665 77.6136 23.2864 77.6136H20.8968C20.2375 77.6136 19.7035 78.1475 19.7035 78.8068C19.7035 79.4661 20.2375 80 20.8968 80H60.3015C60.9607 80 61.4947 79.4661 61.4947 78.8068C61.4947 78.1475 60.9607 77.6136 60.3015 77.6136H57.9118C51.7317 77.6136 46.6327 72.8935 46.0328 66.8686H70.5258C76.4094 66.8686 81.1982 62.0826 81.1982 56.1962V56.1204C81.1949 55.4611 80.661 54.9272 80.0017 54.9272H80.0035ZM37.016 17.9121C37.016 15.9377 38.6245 14.3292 40.5989 14.3292C42.5733 14.3292 44.1817 15.9376 44.1817 17.9121C44.1817 19.8864 42.5733 21.4949 40.5989 21.4949C38.6245 21.4949 37.016 19.8865 37.016 17.9121ZM40.5989 23.8813C57.9761 23.8813 72.1824 37.7019 72.8152 54.9273H70.4256C70.2311 50.0952 68.8665 45.3721 66.4438 41.1927C66.1142 40.6225 65.3825 40.428 64.8123 40.7577C64.2421 41.0873 64.0476 41.819 64.3772 42.3892C66.5889 46.2028 67.8414 50.5141 68.0325 54.9239L8.38333 54.9272C9.01618 37.7018 23.2216 23.8813 40.5989 23.8813ZM50.003 77.6146H31.1955C34.7487 75.2546 37.1912 71.3487 37.5636 66.8697H43.635C44.0075 71.3524 46.4498 75.2549 50.003 77.6146ZM70.5243 64.48H10.6734C6.48411 64.48 3.0133 61.3553 2.4661 57.3143H78.7348C78.1844 61.3586 74.7137 64.48 70.5243 64.48Z" fill="black"/>
<path d="M62.8315 36.2218C62.3931 35.7306 61.6383 35.6878 61.1439 36.1295C60.6528 36.5711 60.6099 37.326 61.0516 37.8171C61.3845 38.1895 61.7108 38.5719 62.0239 38.9608C62.4392 39.475 63.1907 39.5574 63.7016 39.1454C64.2158 38.7334 64.2982 37.9819 63.8862 37.4677C63.5467 37.0425 63.1908 36.6239 62.8315 36.2218Z" fill="black"/>
<path d="M17.9111 22.6872C17.9111 23.3464 18.4451 23.8804 19.1044 23.8804C19.7636 23.8804 20.2976 23.3464 20.2976 22.6872C20.2976 19.7997 23.4816 19.5756 23.4816 15.5214C23.4816 11.4705 20.2976 11.2431 20.2976 8.35567C20.2976 5.48809 23.4816 5.23757 23.4816 1.19322C23.4816 0.534 22.9476 0 22.2884 0C21.6291 0 21.0951 0.533967 21.0951 1.19322C21.0951 4.0608 17.9111 4.31133 17.9111 8.35567C17.9111 12.4066 21.0951 12.634 21.0951 15.5214C21.0951 16.8596 20.5546 17.4661 19.8064 18.3099C18.9626 19.2625 17.9111 20.4425 17.9111 22.6872Z" fill="black"/>
<path d="M54.9262 20.3008C54.9262 20.9601 55.4602 21.4941 56.1194 21.4941C56.7787 21.4941 57.3126 20.9601 57.3126 20.3008C57.3126 16.2499 54.1286 16.0225 54.1286 13.1351C54.1286 10.2675 57.3126 10.017 57.3126 5.97264C57.3126 5.31342 56.7787 4.77942 56.1194 4.77942C55.4602 4.77942 54.9262 5.31339 54.9262 5.97264C54.9262 8.84022 51.7422 9.09074 51.7422 13.1351C51.7422 15.3798 52.7936 16.563 53.6374 17.509C54.3857 18.3528 54.9262 18.9626 54.9262 20.3008Z" fill="black"/>
</svg>
