<svg width="75" height="80" viewBox="0 0 75 80" fill="none" xmlns="http://www.w3.org/2000/svg">
<path d="M52.5866 28.381H46.9129C46.4743 28.381 46.118 28.7366 46.118 29.1742V34.4573C46.118 34.8949 46.4743 35.2505 46.9129 35.2505H52.5866C53.0252 35.2505 53.3815 34.8949 53.3815 34.4573V29.1742C53.3815 28.7366 53.0252 28.381 52.5866 28.381ZM51.7918 33.664H47.7078V29.9674H51.7918V33.664ZM52.5866 38.9471H46.9129C46.4743 38.9471 46.118 39.3027 46.118 39.7403V45.0234C46.118 45.461 46.4743 45.8166 46.9129 45.8166H52.5866C53.0252 45.8166 53.3815 45.461 53.3815 45.0234V39.7403C53.3815 39.3027 53.0252 38.9471 52.5866 38.9471ZM51.7918 44.2301H47.7078V40.5335H51.7918V44.2301ZM52.5866 49.2827H46.9129C46.4743 49.2827 46.118 49.6383 46.118 50.0759V55.359C46.118 55.7967 46.4743 56.1522 46.9129 56.1522H52.5866C53.0252 56.1522 53.3815 55.7967 53.3815 55.359V50.0759C53.3815 49.6383 53.0252 49.2827 52.5866 49.2827ZM51.7918 54.5658H47.7078V50.8692H51.7918V54.5658ZM52.5866 59.7356H46.9129C46.4743 59.7356 46.118 60.0912 46.118 60.5288V65.8119C46.118 66.2495 46.4743 66.6051 46.9129 66.6051H52.5866C53.0252 66.6051 53.3815 66.2495 53.3815 65.8119V60.5288C53.3815 60.0912 53.0252 59.7356 52.5866 59.7356ZM51.7918 65.0186H47.7078V61.322H51.7918V65.0186ZM73.8755 77.7811H72.2976V21.4643C72.2976 20.8508 71.8003 20.3545 71.1855 20.3545H45.5893V6.36163C45.5893 5.74814 45.0921 5.25184 44.4773 5.25184H40.8005V1.10979C40.8005 0.496294 40.3032 0 39.6884 0H23.6271C23.0123 0 22.515 0.496264 22.515 1.10979V5.25184H18.8382C18.2235 5.25184 17.7262 5.74811 17.7262 6.36163V22.6403L4.51861 14.618C4.17403 14.4109 3.74331 14.4031 3.39482 14.5985C3.04242 14.7939 2.82705 15.1651 2.82705 15.5676V77.7804H1.11206C0.497308 77.7804 0 78.2767 0 78.8902C0 79.5037 0.497278 80 1.11206 80H73.8879C74.5027 80 75 79.5037 75 78.8902C75 78.2767 74.5027 77.7804 73.8879 77.7804L73.8755 77.7811ZM24.7311 2.21558H38.5692V5.24784H24.7311V2.21558ZM19.9424 7.47132H43.3573V20.3548H39.0501C38.4354 20.3548 37.9381 20.8511 37.9381 21.4646V77.7774H32.3583V32.1564C32.3583 31.7695 32.1547 31.41 31.8219 31.2068L19.9415 23.9895V7.4677L19.9424 7.47132ZM30.1307 38.2161H18.2904V35.2346H30.1307V38.2161ZM30.1307 47.3521H18.2904V44.3706H30.1307V47.3521ZM30.1307 56.2889H18.2904V53.3073H30.1307V56.2889ZM30.1307 65.3232H18.2904V62.3417H30.1307V65.3232ZM5.03975 77.7806L5.04367 17.5445L30.1346 32.7838V33.6474H17.4954C17.0569 33.6474 16.7005 34.003 16.7005 34.4406V39.0086C16.7005 39.4463 17.0569 39.8019 17.4954 39.8019H30.1346V42.7834H17.4954C17.0569 42.7834 16.7005 43.139 16.7005 43.5767V48.1447C16.7005 48.5823 17.0569 48.9379 17.4954 48.9379H30.1346V51.7201H17.4954C17.0569 51.7201 16.7005 52.0757 16.7005 52.5134V57.0814C16.7005 57.519 17.0569 57.8746 17.4954 57.8746H30.1346V60.7545H17.4954C17.0569 60.7545 16.7005 61.1101 16.7005 61.5478V66.1158C16.7005 66.5534 17.0569 66.909 17.4954 66.909H30.1346V77.7798L5.03975 77.7806ZM40.1627 77.7806V22.5772H70.0661V77.7806H40.1627ZM12.8244 38.1687H9.17112C8.73258 38.1687 8.37625 38.5243 8.37625 38.9619V44.245C8.37625 44.6827 8.73258 45.0382 9.17112 45.0382H12.8244C13.2629 45.0382 13.6192 44.6827 13.6192 44.245V38.9619C13.6192 38.5243 13.2629 38.1687 12.8244 38.1687ZM12.0295 43.4517H9.96986V39.7552H12.0295V43.4517ZM12.8244 48.7348H9.17112C8.73258 48.7348 8.37625 49.0904 8.37625 49.5281V54.8111C8.37625 55.2488 8.73258 55.6044 9.17112 55.6044H12.8244C13.2629 55.6044 13.6192 55.2488 13.6192 54.8111V49.5281C13.6192 49.0904 13.2629 48.7348 12.8244 48.7348ZM12.0295 54.0179H9.96986V50.3213H12.0295V54.0179ZM12.8244 59.0704H9.17112C8.73258 59.0704 8.37625 59.426 8.37625 59.8637V65.1467C8.37625 65.5844 8.73258 65.94 9.17112 65.94H12.8244C13.2629 65.94 13.6192 65.5844 13.6192 65.1467V59.8637C13.6192 59.426 13.2629 59.0704 12.8244 59.0704ZM12.0295 64.3535H9.96986V60.6569H12.0295V64.3535ZM63.9345 59.7308H58.2607C57.8222 59.7308 57.4659 60.0864 57.4659 60.524V65.8071C57.4659 66.2447 57.8222 66.6003 58.2607 66.6003H63.9345C64.373 66.6003 64.7294 66.2447 64.7294 65.8071V60.524C64.7294 60.0864 64.373 59.7308 63.9345 59.7308ZM63.1396 65.0138H59.0557V61.3172H63.1396V65.0138ZM29.822 13.0466H25.7028C25.2642 13.0466 24.9079 13.4022 24.9079 13.8398V17.6732C24.9079 18.1108 25.2642 18.4664 25.7028 18.4664H29.822C30.2606 18.4664 30.6169 18.1108 30.6169 17.6732V13.8398C30.6169 13.4022 30.2606 13.0466 29.822 13.0466ZM29.0272 16.8799H26.4977V14.633H29.0272V16.8799ZM33.9412 18.4664H38.0604C38.499 18.4664 38.8553 18.1108 38.8553 17.6731V13.8398C38.8553 13.4021 38.499 13.0465 38.0604 13.0465H33.9412C33.5026 13.0465 33.1463 13.4021 33.1463 13.8398V17.6731C33.1463 18.1108 33.5026 18.4664 33.9412 18.4664ZM34.7361 14.633H37.2655V16.8799H34.7361V14.633ZM29.822 20.7172H25.7028C25.2642 20.7172 24.9079 21.0728 24.9079 21.5104V25.3438C24.9079 25.7814 25.2642 26.137 25.7028 26.137H29.822C30.2606 26.137 30.6169 25.7814 30.6169 25.3438V21.5104C30.6169 21.0728 30.2606 20.7172 29.822 20.7172ZM29.0272 24.5505H26.4977V22.3036H29.0272V24.5505ZM12.8285 27.829H9.17522C8.73667 27.829 8.38035 28.1846 8.38035 28.6222V33.9053C8.38035 34.3429 8.73667 34.6985 9.17522 34.6985H12.8285C13.267 34.6985 13.6233 34.3429 13.6233 33.9053V28.6222C13.6233 28.1846 13.267 27.829 12.8285 27.829ZM12.0336 33.112H9.97396V29.4154H12.0336V33.112ZM63.9386 28.376H58.2648C57.8263 28.376 57.47 28.7316 57.47 29.1692V34.4523C57.47 34.8899 57.8263 35.2455 58.2648 35.2455H63.9386C64.3771 35.2455 64.7335 34.8899 64.7335 34.4523V29.1692C64.7335 28.7316 64.3771 28.376 63.9386 28.376ZM63.1437 33.659H59.0598V29.9624H63.1437V33.659ZM63.9386 38.9421H58.2648C57.8263 38.9421 57.47 39.2977 57.47 39.7353V45.0184C57.47 45.456 57.8263 45.8116 58.2648 45.8116H63.9386C64.3771 45.8116 64.7335 45.456 64.7335 45.0184V39.7353C64.7335 39.2977 64.3771 38.9421 63.9386 38.9421ZM63.1437 44.2251H59.0598V40.5285H63.1437V44.2251ZM63.9386 49.2777H58.2648C57.8263 49.2777 57.47 49.6333 57.47 50.0709V55.354C57.47 55.7917 57.8263 56.1472 58.2648 56.1472H63.9386C64.3771 56.1472 64.7335 55.7917 64.7335 55.354V50.0709C64.7335 49.6333 64.3771 49.2777 63.9386 49.2777ZM63.1437 54.5608H59.0598V50.8642H63.1437V54.5608Z" fill="black"/>
</svg>
