<svg width="76" height="80" viewBox="0 0 76 80" fill="none" xmlns="http://www.w3.org/2000/svg">
<path d="M75.1925 40.4094C75.2024 40.3798 75.2123 40.3502 75.2188 40.3173C75.2254 40.291 75.232 40.2679 75.2386 40.2416C75.2452 40.2153 75.2485 40.189 75.255 40.166C75.2616 40.1364 75.2649 40.1035 75.2682 40.0739C75.2715 40.0508 75.2715 40.0311 75.2748 40.0081C75.2781 39.9719 75.2781 39.939 75.2813 39.9028V39.8732C75.2813 31.2065 71.2489 22.4775 64.2132 15.9225C57.3818 9.56137 48.5898 5.89419 39.3017 5.50266V1.66102C39.3017 0.743405 38.5584 0 37.6407 0C36.723 0 35.9796 0.743329 35.9796 1.66102V5.50266C26.6915 5.89406 17.8993 9.56137 11.0681 15.9292C4.03277 22.4844 0 31.2132 0 39.88V39.9096C0 39.9458 0.00328885 39.9787 0.00657855 40.0148C0.00986742 40.0379 0.00986744 40.0576 0.0131563 40.0806C0.0164452 40.1102 0.0230237 40.1431 0.0263126 40.1727C0.0296015 40.199 0.0361799 40.2253 0.0427576 40.2484C0.0493362 40.2747 0.0559139 40.2977 0.0624924 40.324C0.072359 40.3536 0.0789376 40.3832 0.088805 40.4161C0.0953828 40.4358 0.101962 40.4556 0.111829 40.4753C0.124984 40.5082 0.138142 40.5411 0.151297 40.574C0.154587 40.5839 0.157875 40.5904 0.161164 40.6003C0.164454 40.6102 0.171032 40.62 0.17761 40.6299C0.194056 40.6595 0.210501 40.6924 0.226946 40.7187C0.240102 40.7384 0.24997 40.7582 0.263126 40.7779C0.279571 40.8042 0.296017 40.8272 0.312462 40.8503C0.328907 40.8733 0.345353 40.893 0.361798 40.916C0.378244 40.9358 0.394689 40.9555 0.407845 40.972C0.42758 40.995 0.447314 41.018 0.467048 41.0377C0.483494 41.0542 0.499939 41.0706 0.516385 41.0871C0.539408 41.1068 0.562432 41.1298 0.585456 41.1496C0.601901 41.166 0.621635 41.1792 0.64137 41.1956C0.664394 41.2121 0.687417 41.2318 0.71044 41.2482C0.733464 41.2647 0.756487 41.2778 0.779511 41.291C0.799245 41.3042 0.822269 41.3173 0.845292 41.3305C0.871605 41.3469 0.897917 41.3601 0.92423 41.3732C0.943965 41.3831 0.963699 41.393 0.983434 41.4028C1.01304 41.416 1.04264 41.4291 1.07224 41.439C1.09197 41.4456 1.11171 41.4555 1.13144 41.462C1.16105 41.4719 1.19065 41.4818 1.22354 41.4883C1.24657 41.4949 1.26959 41.5015 1.29261 41.5048C1.31893 41.5114 1.34853 41.5179 1.37484 41.5212C1.40115 41.5245 1.43075 41.5311 1.45707 41.5344C1.48009 41.5377 1.5064 41.541 1.52943 41.541C1.56232 41.5443 1.59521 41.5443 1.6281 41.5476C1.64126 41.5476 1.65112 41.5508 1.66099 41.5508H1.69059C1.72348 41.5508 1.75966 41.5476 1.79255 41.5443C1.81558 41.541 1.83531 41.541 1.85833 41.5377C1.88793 41.5344 1.91754 41.5278 1.94714 41.5245C1.97345 41.5212 1.99976 41.5147 2.02608 41.5081C2.0491 41.5015 2.07541 41.4949 2.09844 41.4883C2.12804 41.4785 2.16093 41.4719 2.19053 41.462C2.21027 41.4555 2.23 41.4489 2.24974 41.4423C2.28263 41.4291 2.31552 41.416 2.34841 41.3995C2.35499 41.3963 2.36486 41.393 2.37143 41.3897C5.87097 39.7221 9.77189 38.8407 13.6501 38.8407C17.5279 38.8407 21.4288 39.7222 24.9287 41.3897H24.932C24.9846 41.416 25.0405 41.4357 25.0964 41.4555C25.1129 41.462 25.1326 41.4653 25.1491 41.4719C25.1853 41.4851 25.2247 41.4949 25.2609 41.5048C25.2839 41.5114 25.3102 41.5147 25.3333 41.5179C25.3661 41.5245 25.399 41.5311 25.4319 41.5344C25.455 41.5377 25.4813 41.541 25.5043 41.541C25.5372 41.5443 25.5701 41.5443 25.6063 41.5476C25.6194 41.5476 25.6293 41.5508 25.6424 41.5508C25.6523 41.5508 25.6589 41.5508 25.6655 41.5476C25.8036 41.5443 25.9417 41.5278 26.0799 41.4883C26.0963 41.4851 26.1128 41.4785 26.1259 41.4752C26.1786 41.4587 26.2279 41.4423 26.2805 41.4193C26.297 41.4127 26.3134 41.4061 26.3298 41.3995C26.3397 41.3963 26.3463 41.393 26.3562 41.3897C29.3558 39.9622 32.6515 39.1104 35.9735 38.8966V74.4283C35.9735 75.6683 34.9638 76.678 33.7238 76.678C32.4838 76.678 31.474 75.6683 31.474 74.4283V73.2179C31.474 72.3003 30.7307 71.5569 29.813 71.5569C28.8953 71.5569 28.152 72.3002 28.152 73.2179V74.4283C28.152 77.5003 30.6517 80 33.7237 80C36.7957 80 39.2954 77.5003 39.2954 74.4283L39.302 38.8865C42.6239 39.1003 45.9196 39.9488 48.9193 41.3796H48.9226C48.9753 41.4059 49.0312 41.4256 49.0871 41.4454C49.1035 41.4519 49.1233 41.4552 49.1397 41.4618C49.1759 41.475 49.2154 41.4848 49.2515 41.4947C49.2746 41.5013 49.3009 41.5046 49.3239 41.5078C49.3568 41.5144 49.3897 41.521 49.4226 41.5243C49.4456 41.5276 49.4719 41.5309 49.4949 41.5309C49.5278 41.5342 49.5607 41.5342 49.5969 41.5374C49.61 41.5374 49.6199 41.5407 49.6331 41.5407C49.6429 41.5407 49.6495 41.5407 49.6561 41.5374C49.7942 41.5342 49.9324 41.5177 50.0705 41.4782C50.087 41.475 50.1034 41.4684 50.1166 41.4651C50.1692 41.4486 50.2185 41.4322 50.2711 41.4092C50.2876 41.4026 50.304 41.396 50.3205 41.3894C50.3303 41.3861 50.3369 41.3829 50.3468 41.3796C53.8463 39.712 57.7472 38.8306 61.6254 38.8306C65.5036 38.8306 69.4041 39.7121 72.9041 41.3796C72.9106 41.3829 72.9205 41.3861 72.9271 41.3894C72.9666 41.4092 73.006 41.4256 73.0488 41.4388C73.0652 41.4454 73.0784 41.4519 73.0948 41.4552C73.1343 41.4684 73.1771 41.4782 73.2165 41.4881C73.233 41.4914 73.2527 41.498 73.2692 41.5013C73.3053 41.5078 73.3448 41.5144 73.3843 41.521C73.404 41.5243 73.4237 41.5276 73.4468 41.5309C73.4797 41.5342 73.5125 41.5342 73.5454 41.5374C73.5717 41.5374 73.5948 41.5407 73.6211 41.5407H73.631C73.7 41.5407 73.7658 41.5342 73.8316 41.5276C73.848 41.5243 73.8678 41.521 73.8842 41.521C73.9434 41.5111 73.9993 41.498 74.0585 41.4848C74.0684 41.4815 74.0783 41.4782 74.0914 41.4782C74.1605 41.4585 74.2263 41.4355 74.2921 41.4059C74.2986 41.4026 74.3052 41.3993 74.3118 41.396C74.3677 41.3697 74.4236 41.3401 74.4762 41.3105C74.4894 41.3006 74.5058 41.2941 74.519 41.2842C74.5782 41.248 74.6341 41.2085 74.6867 41.1658C74.6933 41.1592 74.6999 41.1526 74.7065 41.1461C74.7525 41.1066 74.7953 41.0671 74.8347 41.0211C74.8479 41.0046 74.8611 40.9915 74.8775 40.975C74.9236 40.9224 74.9663 40.8698 75.0058 40.8106C75.0058 40.8106 75.0058 40.8073 75.0091 40.8073C75.0485 40.7481 75.0847 40.6823 75.1176 40.6165C75.1209 40.6099 75.1242 40.6034 75.1275 40.5968C75.1308 40.5869 75.1341 40.5803 75.1373 40.5705C75.1505 40.5376 75.1669 40.5047 75.1768 40.4718C75.1801 40.4488 75.186 40.4291 75.1925 40.4094ZM49.6335 38.0511C45.8774 36.3868 41.7496 35.5087 37.6417 35.5087C33.5338 35.5087 29.4059 36.3869 25.6499 38.0511C21.8938 36.3868 17.7627 35.5087 13.6581 35.5087C10.1947 35.5087 6.71812 36.1336 3.45889 37.3276C4.16276 30.4337 7.67219 23.6349 13.3356 18.3597C19.9565 12.1895 28.5868 8.78869 37.6417 8.78869C46.6966 8.78869 55.3272 12.1863 61.9512 18.3597C67.615 23.6387 71.1248 30.4341 71.8279 37.3276C68.5684 36.1336 65.0919 35.5087 61.6287 35.5087C57.5207 35.5087 53.3929 36.3869 49.6335 38.0511Z" fill="black"/>
</svg>
