<svg width="74" height="80" viewBox="0 0 74 80" fill="none" xmlns="http://www.w3.org/2000/svg">
<path d="M9.09884 70.4531H9.55475H9.55089C9.63202 75.7501 13.9515 80 19.2447 80H50.9646C56.3235 79.9923 60.6623 75.6535 60.67 70.2946V43.5893L71.55 31.3454C74.1232 28.4825 73.8913 24.0741 71.0284 21.4971C68.1655 18.9239 63.757 19.1558 61.1839 22.0187L60.5696 22.7103L56.3776 27.42L51.1346 33.3043V12.5335C54.7819 12.6224 57.6912 15.6013 57.7028 19.2485C57.7028 20.0676 58.3634 20.7321 59.1864 20.7321C60.0055 20.7321 60.67 20.0676 60.67 19.2485C60.6623 13.9553 56.4161 9.64361 51.1231 9.55469V9.09879C51.1192 4.07612 47.047 0.00771486 42.0243 0H17.1696C16.7716 0 16.3891 0.162269 16.111 0.444316L0.425071 16.4784C0.150758 16.7565 -0.00378691 17.1275 7.05223e-05 17.5177V61.3539C0.00393389 66.3766 4.07617 70.4492 9.09884 70.4531ZM35.8041 56.4862C35.8273 56.096 35.9046 55.7096 36.0321 55.3387L41.4141 60.1373H41.4102C41.0548 60.3034 40.68 60.4232 40.2936 60.4928L35.5839 61.2539L35.8041 56.4862ZM43.7168 58.1784L37.6625 52.8775L57.5837 30.5222L63.5182 35.8424L43.7168 58.1784ZM61.7943 25.7978L67.7288 31.118L65.5034 33.6215L59.5689 28.3013L61.7943 25.7978ZM66.1563 22.6605H66.3457C68.459 22.6605 70.2015 24.318 70.302 26.4314C70.3522 27.2968 70.1166 28.1546 69.6297 28.8732L63.6952 23.6226C64.383 23.0314 65.2522 22.6953 66.1563 22.6605ZM48.156 9.14169V36.3682C48.1521 36.4532 48.1521 36.5344 48.156 36.6155L34.6956 51.7683C34.6608 51.8108 34.626 51.8533 34.5951 51.8996C34.5565 51.9267 34.5178 51.9576 34.4869 51.9962C34.4406 52.0619 34.3981 52.1314 34.371 52.2049C33.4399 53.3948 32.9028 54.8399 32.8256 56.3505L32.5203 62.9496V62.9457C32.5049 63.3514 32.6517 63.7416 32.9338 64.0353C33.2119 64.3251 33.5983 64.4912 34.0039 64.4873H34.2396L40.7459 63.4287L40.7498 63.4326C42.4266 63.1544 43.9566 62.3121 45.0925 61.0487L57.7033 46.8652V70.2946C57.6955 74.0114 54.6819 77.0251 50.9651 77.0328H19.2452C15.5902 77.025 12.6076 74.1081 12.5186 70.4531H42.025C47.0477 70.4492 51.1199 66.377 51.1238 61.3543C51.1238 60.5352 50.4592 59.8707 49.6402 59.8707C48.8211 59.8707 48.1565 60.5352 48.1565 61.3543C48.1527 64.7389 45.4096 67.482 42.025 67.4858H9.09937C5.71482 67.482 2.9717 64.7389 2.96784 61.3543V19.0017H13.7667C16.9039 18.9978 19.4423 16.4518 19.4423 13.3145V3.00624H42.0251C45.4097 3.01397 48.1521 5.75714 48.156 9.14169ZM16.5053 4.34305V13.3143C16.5053 14.8095 15.2921 16.0228 13.7969 16.0228H5.02263L16.5053 4.34305ZM24.8043 57.8228C24.8043 58.6419 24.1398 59.3065 23.3207 59.3065H7.83163C7.01255 59.3065 6.348 58.6419 6.348 57.8228C6.348 57.0038 7.01255 56.3392 7.83163 56.3392H23.3593C24.1629 56.3624 24.8043 57.0192 24.8043 57.8228ZM23.51 25.6578C24.3291 25.6578 24.9936 26.3224 24.9936 27.1414C24.9936 27.9605 24.3291 28.6251 23.51 28.6251H7.83103C7.01195 28.6251 6.34741 27.9605 6.34741 27.1414C6.34741 26.3224 7.01195 25.6578 7.83103 25.6578H23.51ZM7.83103 31.5923H43.2917C44.1108 31.5923 44.7753 32.2569 44.7753 33.076C44.7753 33.895 44.1108 34.5596 43.2917 34.5596H7.83103C7.01195 34.5596 6.34741 33.895 6.34741 33.076C6.34741 32.2569 7.01195 31.5923 7.83103 31.5923ZM38.8408 39.0297C38.8408 39.8488 38.1763 40.5134 37.3572 40.5134H7.83103C7.01195 40.5134 6.34741 39.8488 6.34741 39.0297C6.34741 38.2107 7.01195 37.5461 7.83103 37.5461H37.3572C38.1763 37.5461 38.8408 38.2107 38.8408 39.0297ZM31.9172 44.9643C31.9172 45.7833 31.2527 46.4479 30.4336 46.4479H7.83103C7.01195 46.4479 6.34741 45.7833 6.34741 44.9643C6.34741 44.1452 7.01195 43.4806 7.83103 43.4806H30.4336C31.2527 43.4806 31.9172 44.1452 31.9172 44.9643Z" fill="black"/>
</svg>
