<svg width="84" height="80" viewBox="0 0 84 80" fill="none" xmlns="http://www.w3.org/2000/svg">
<path d="M17.8801 0C17.5109 0 17.1616 0.170871 16.936 0.458027L12.54 6.0919C12.4648 6.19446 12.4034 6.30433 12.3624 6.41373C12.3487 6.44791 12.3412 6.48888 12.3343 6.5299C12.3138 6.61195 12.3011 6.68689 12.2943 6.76893C12.2943 6.81679 12.2941 6.85861 12.301 6.90647C12.3078 6.98168 12.3138 7.05576 12.3344 7.12414C12.348 7.17199 12.3621 7.21382 12.3758 7.26168C12.3894 7.28902 12.3901 7.32246 12.4038 7.34981C12.4243 7.39083 12.4579 7.42496 12.4853 7.46599C12.4989 7.49333 12.5061 7.52143 12.5267 7.54878L20.3959 17.9539C19.4866 18.5761 18.8843 19.6232 18.8843 20.8129V21.2429C6.85111 24.7776 -1.00378 36.2498 0.103817 48.8915C1.22509 61.6357 11.6985 71.9126 24.4701 72.7877C25.0854 72.8287 25.7082 72.8492 26.3236 72.8492C30.1455 72.8492 33.8986 72.0224 37.3376 70.4362C42.3628 76.5211 49.6989 80 57.623 80C72.1517 80 83.967 68.1861 83.967 53.6574C83.9738 39.1287 72.1584 27.3148 57.6297 27.3148C53.7805 27.3148 50.0964 28.1281 46.6437 29.7211C43.3004 25.6873 38.7939 22.713 33.8029 21.2362V20.8063C33.8029 19.6234 33.202 18.5761 32.2926 17.9539L40.1619 7.54881C40.1824 7.52146 40.1883 7.49336 40.2019 7.46602C40.2293 7.425 40.2642 7.39087 40.2847 7.34985C40.2984 7.3225 40.3046 7.28907 40.3114 7.26171C40.332 7.21385 40.346 7.17203 40.3528 7.12417C40.3734 7.04896 40.3807 6.98171 40.3876 6.90651C40.3876 6.85865 40.3943 6.81682 40.3943 6.76896C40.3874 6.68692 40.3734 6.61198 40.3529 6.52994C40.346 6.48891 40.3398 6.45478 40.3262 6.41376C40.2851 6.29753 40.2306 6.18765 40.1486 6.09193L35.7512 0.458061C35.5256 0.170905 35.1777 3.42316e-05 34.8085 3.42316e-05H30.3844H22.3028L17.8801 0ZM18.461 2.38628H20.5802L19.3703 5.6272H15.9304L18.461 2.38628ZM23.1374 2.38628H29.5578L30.7676 5.6272H21.9275L23.1374 2.38628ZM32.107 2.38628H34.2195L36.7567 5.6272H33.3181L32.107 2.38628ZM15.8904 8.02016H19.3637L22.5431 16.8202L15.8904 8.02016ZM21.9062 8.02016H30.781L27.4105 17.3463H25.2699L21.9062 8.02016ZM33.3315 8.02016H36.8048L30.152 16.8202L33.3315 8.02016ZM22.3442 19.7326H24.4367H28.2585H30.343C30.931 19.7326 31.4099 20.2102 31.4099 20.7982V22.1389C31.4099 22.6859 31.7793 23.1639 32.3126 23.3007C37.0097 24.504 41.269 27.1644 44.455 30.8428C43.4568 31.4171 42.5002 32.0668 41.584 32.771C37.6937 28.4432 32.2029 25.9874 26.3436 25.9874C15.0351 25.9874 5.83247 35.1912 5.83247 46.5065C5.83247 57.815 15.0351 67.0176 26.3436 67.0176C29.4407 67.0176 32.4225 66.3396 35.1983 65.0133C36.5247 64.3774 37.7819 63.5989 38.9373 62.6964C39.4433 62.2999 39.9428 61.8762 40.4009 61.4318C44.5031 57.5826 46.848 52.1469 46.848 46.5132C46.848 44.2707 46.4853 42.0691 45.781 39.9633C46.6835 39.177 47.6544 38.4799 48.6868 37.8988C49.7465 40.6336 50.2799 43.5254 50.2799 46.5132C50.2799 53.5759 47.1764 60.2483 41.7683 64.8223C40.3599 66.0119 38.8003 67.0445 37.1253 67.8923C33.3102 69.8272 28.9893 70.6957 24.641 70.3881C13.0317 69.5881 3.50879 60.2491 2.49007 48.6671C1.45768 36.8869 8.9852 26.2201 20.3825 23.3007C20.909 23.1639 21.2839 22.6859 21.2839 22.1389V20.7982C21.2839 20.2102 21.763 19.7326 22.3442 19.7326ZM26.3436 28.3804C31.4987 28.3804 36.3264 30.5352 39.7586 34.316C34.371 39.3002 31.2937 46.2735 31.2937 53.6507C31.2937 56.9872 31.9089 60.2285 33.1259 63.312C30.979 64.1803 28.7023 64.6247 26.3436 64.6247C16.3547 64.6247 8.22543 56.4954 8.22543 46.5065C8.22543 36.5108 16.3547 28.3804 26.3436 28.3804ZM57.6444 29.701C70.8535 29.701 81.594 40.4417 81.594 53.644C81.5803 66.86 70.8388 77.6003 57.6297 77.6003C50.6012 77.6003 44.0785 74.5995 39.5182 69.3144C40.5233 68.7333 41.4811 68.0837 42.3972 67.3795C46.2875 71.7074 51.7702 74.1618 57.6364 74.1618C68.9516 74.1618 78.1555 64.9593 78.1555 53.644C78.1555 42.3356 68.9516 33.1329 57.6364 33.1329C54.546 33.1329 51.5721 33.8029 48.7963 35.1293C48.7621 35.1498 48.721 35.1635 48.6868 35.184C46.8134 36.0865 45.0982 37.2763 43.5804 38.7121L43.5737 38.7189C43.5668 38.7189 43.567 38.7257 43.567 38.7257C39.4716 42.5818 37.1252 48.0176 37.1252 53.6377C37.1252 55.8802 37.4878 58.0816 38.1988 60.1943C37.9595 60.3994 37.7212 60.5969 37.4751 60.7952C36.7845 61.3353 36.052 61.8212 35.2931 62.2587C34.2334 59.5103 33.7 56.6185 33.7 53.6444C33.7 46.5749 36.8048 39.9024 42.2129 35.3353C43.635 34.1251 45.1932 33.0925 46.8546 32.2653C50.2184 30.5628 53.8498 29.701 57.6444 29.701ZM57.6297 35.5325C67.6254 35.5325 75.7545 43.6618 75.7545 53.6507C75.7545 63.6464 67.6254 71.7755 57.6297 71.7755C52.4814 71.7755 47.6549 69.6222 44.2227 65.8345C49.6103 60.8435 52.6875 53.87 52.6875 46.5065C52.6875 43.1564 52.0711 39.9084 50.8541 36.8385C53.0077 35.9702 55.2777 35.5325 57.6297 35.5325ZM43.8608 41.8768C44.2574 43.381 44.4684 44.9272 44.4684 46.5065C44.4684 50.8959 42.9373 55.0111 40.1205 58.2724C39.7239 56.7682 39.5115 55.2232 39.5115 53.6507C39.5115 49.2613 41.0439 45.1518 43.8608 41.8768Z" fill="black"/>
</svg>
